<svg width="20" height="20" viewBox="0 0 20 20" fill="none" xmlns="http://www.w3.org/2000/svg">
<path d="M16.25 5H13.3333V3.75C13.3333 3.41848 13.2016 3.10054 12.9672 2.86612C12.7328 2.6317 12.4149 2.5 12.0833 2.5H7.91667C7.58515 2.5 7.26721 2.6317 7.03279 2.86612C6.79837 3.10054 6.66667 3.41848 6.66667 3.75V5H3.75001C3.19747 5 2.66757 5.21949 2.27687 5.61019C1.88617 6.0009 1.66667 6.5308 1.66667 7.08333V15.4167C1.66667 15.9692 1.88617 16.4991 2.27687 16.8898C2.66757 17.2805 3.19747 17.5 3.75001 17.5H16.25C16.8025 17.5 17.3324 17.2805 17.7231 16.8898C18.1138 16.4991 18.3333 15.9692 18.3333 15.4167V7.08333C18.3333 6.5308 18.1138 6.0009 17.7231 5.61019C17.3324 5.21949 16.8025 5 16.25 5ZM7.5 3.75C7.5 3.63949 7.5439 3.53351 7.62204 3.45537C7.70018 3.37723 7.80616 3.33333 7.91667 3.33333H12.0833C12.1938 3.33333 12.2998 3.37723 12.378 3.45537C12.4561 3.53351 12.5 3.63949 12.5 3.75V5H7.5V3.75ZM17.5 15.4167C17.5 15.7482 17.3683 16.0661 17.1339 16.3005C16.8995 16.535 16.5815 16.6667 16.25 16.6667H3.75001C3.41848 16.6667 3.10054 16.535 2.86612 16.3005C2.6317 16.0661 2.50001 15.7482 2.50001 15.4167V10.4167C2.85917 10.6899 3.29874 10.8364 3.75001 10.8333H8.33334V11.25C8.33334 11.5815 8.46503 11.8995 8.69945 12.1339C8.93388 12.3683 9.25182 12.5 9.58334 12.5H10.4167C10.7482 12.5 11.0661 12.3683 11.3006 12.1339C11.535 11.8995 11.6667 11.5815 11.6667 11.25V10.8333H16.25C16.7022 10.834 17.1419 10.6845 17.5 10.4083V15.4167ZM9.16667 11.25V10.4167C9.16667 10.3062 9.21057 10.2002 9.28871 10.122C9.36685 10.0439 9.47283 10 9.58334 10H10.4167C10.5272 10 10.6332 10.0439 10.7113 10.122C10.7894 10.2002 10.8333 10.3062 10.8333 10.4167V11.25C10.8333 11.3605 10.7894 11.4665 10.7113 11.5446C10.6332 11.6228 10.5272 11.6667 10.4167 11.6667H9.58334C9.47283 11.6667 9.36685 11.6228 9.28871 11.5446C9.21057 11.4665 9.16667 11.3605 9.16667 11.25ZM17.5 8.75C17.5 9.08152 17.3683 9.39946 17.1339 9.63388C16.8995 9.8683 16.5815 10 16.25 10H11.5917C11.5057 9.75685 11.3466 9.54625 11.1363 9.39706C10.9259 9.24787 10.6746 9.16739 10.4167 9.16667H9.58334C9.32544 9.16739 9.07409 9.24787 8.86373 9.39706C8.65337 9.54625 8.4943 9.75685 8.40834 10H3.75001C3.41848 10 3.10054 9.8683 2.86612 9.63388C2.6317 9.39946 2.50001 9.08152 2.50001 8.75V7.08333C2.50001 6.75181 2.6317 6.43387 2.86612 6.19945C3.10054 5.96503 3.41848 5.83333 3.75001 5.83333H16.25C16.5815 5.83333 16.8995 5.96503 17.1339 6.19945C17.3683 6.43387 17.5 6.75181 17.5 7.08333V8.75ZM3.83334 7.5C3.72283 7.5 3.61685 7.5439 3.53871 7.62204C3.46057 7.70018 3.41667 7.80616 3.41667 7.91667C3.41667 8.02717 3.46057 8.13315 3.53871 8.21129C3.61685 8.28943 3.72283 8.33333 3.83334 8.33333C3.94385 8.33333 4.04983 8.28943 4.12797 8.21129C4.20611 8.13315 4.25001 8.02717 4.25001 7.91667C4.25001 7.80616 4.20611 7.70018 4.12797 7.62204C4.04983 7.5439 3.94385 7.5 3.83334 7.5ZM16.3333 7.5C16.2228 7.5 16.1169 7.5439 16.0387 7.62204C15.9606 7.70018 15.9167 7.80616 15.9167 7.91667C15.9167 8.02717 15.9606 8.13315 16.0387 8.21129C16.1169 8.28943 16.2228 8.33333 16.3333 8.33333C16.4438 8.33333 16.5498 8.28943 16.628 8.21129C16.7061 8.13315 16.75 8.02717 16.75 7.91667C16.75 7.80616 16.7061 7.70018 16.628 7.62204C16.5498 7.5439 16.4438 7.5 16.3333 7.5Z" fill="#162D4C"/>
</svg>
