<svg width="20" height="20" viewBox="0 0 20 20" fill="none" xmlns="http://www.w3.org/2000/svg">
<path d="M17.1241 11.9998H13.2635C13.1683 11.9998 13.077 11.9539 13.0193 11.8773C12.4022 11.0555 12.077 10.2474 11.9644 9.25741C11.8641 8.37265 12.1395 7.42709 12.7398 6.59482C13.1749 5.99154 13.3939 5.27817 13.3736 4.53158C13.3262 2.78598 11.8685 1.31479 10.1238 1.25204C9.19757 1.22055 8.32233 1.55404 7.65729 2.19565C6.99152 2.83774 6.62506 3.70028 6.62506 4.62485C6.62506 5.38559 6.88556 6.13095 7.35822 6.72397C7.93341 7.44565 8.19196 8.4061 8.06769 9.35873C7.94879 10.2711 7.61359 11.0482 6.98126 11.8785L6.98102 11.8788C6.9234 11.9547 6.83258 11.9998 6.7381 11.9998H2.62628C1.86737 11.9998 1.24994 12.6178 1.24994 13.3773V15.7498C1.24994 16.026 1.47382 16.2498 1.74994 16.2498H2.99994V17.283C2.99994 18.0919 3.6579 18.7498 4.46674 18.7498H15.5333C16.3421 18.7498 17.0001 18.0919 17.0001 17.283V16.2498H18.2501C18.5262 16.2498 18.7501 16.026 18.7501 15.7498V13.6273C18.7501 12.7298 18.0206 11.9998 17.1241 11.9998ZM16.0001 17.283C16.0001 17.5404 15.7906 17.7498 15.5333 17.7498H4.46674C4.20929 17.7498 3.99994 17.5404 3.99994 17.283V16.2498H16.0001V17.283ZM17.7501 15.2498H16.5001H3.49994H2.24994V13.3773C2.24994 13.1693 2.41876 12.9998 2.62628 12.9998H6.7381C7.14288 12.9998 7.53131 12.8072 7.77692 12.4842C8.52106 11.5072 8.91656 10.5831 9.05939 9.48813C9.21857 8.26791 8.88361 7.03329 8.1402 6.10068C7.80328 5.67807 7.62506 5.16757 7.62506 4.62485C7.62506 3.97421 7.88312 3.36728 8.35138 2.91537C8.8194 2.46371 9.43243 2.22275 10.0877 2.25155C11.3152 2.2955 12.3406 3.33066 12.3741 4.55893C12.3882 5.08432 12.2342 5.58603 11.9288 6.00986C11.1824 7.04428 10.8423 8.23764 10.9708 9.37021C11.1046 10.5472 11.4896 11.5055 12.2198 12.4781C12.4654 12.8048 12.8555 12.9998 13.2635 12.9998H17.1241C17.4693 12.9998 17.7501 13.2813 17.7501 13.6273V15.2498Z" fill="#DFAC0F"/>
</svg>
