<svg width="20" height="20" viewBox="0 0 20 20" fill="none" xmlns="http://www.w3.org/2000/svg">
<g clip-path="url(#clip0_200_7831)">
<path d="M17.3371 0.351562V16.8984H4.01913C3.65446 16.8984 3.30473 17.0433 3.04686 17.3012C2.789 17.559 2.64413 17.9088 2.64413 18.2734V1.91094C2.64413 1.49737 2.80843 1.10073 3.10086 0.808293C3.3933 0.515853 3.78994 0.351563 4.20351 0.351562H17.3371Z" stroke="#DFAC0F" stroke-linecap="round" stroke-linejoin="round"/>
<path d="M17.3371 16.8984H4.01913C3.65446 16.8984 3.30473 17.0433 3.04686 17.3012C2.789 17.559 2.64413 17.9088 2.64413 18.2734C2.64413 18.6381 2.789 18.9878 3.04686 19.2457C3.30473 19.5036 3.65446 19.6484 4.01913 19.6484H17.3559C16.5258 19.6484 16.5129 16.9836 17.3168 16.8984M17.3371 16.8984H17.3168M17.3371 16.8984H17.3559C17.3426 16.8984 17.3297 16.8984 17.3168 16.8984M12.375 6.225C12.3751 6.5624 12.2751 6.89225 12.0877 7.17283C11.9003 7.45341 11.6339 7.67211 11.3222 7.80129C11.0105 7.93046 10.6675 7.9643 10.3366 7.89852C10.0056 7.83274 9.70165 7.67031 9.46305 7.43175C9.22444 7.1932 9.06193 6.88925 8.99608 6.55833C8.93023 6.22742 8.96399 5.8844 9.09309 5.57268C9.22219 5.26095 9.44083 4.99451 9.72137 4.80705C10.0019 4.61959 10.3317 4.51953 10.6691 4.51953C11.1215 4.51953 11.5553 4.6992 11.8752 5.01903C12.1951 5.33885 12.3749 5.77265 12.375 6.225ZM14.3844 11.7641H6.95312C6.95312 10.2016 8.61484 8.93438 10.6641 8.93438C12.7133 8.93438 14.3844 10.2027 14.3844 11.7641Z" stroke="#DFAC0F" stroke-linecap="round" stroke-linejoin="round"/>
</g>
<defs>
<clipPath id="clip0_200_7831">
<rect width="20" height="20" fill="white"/>
</clipPath>
</defs>
</svg>
