<svg width="20" height="20" viewBox="0 0 20 20" fill="none" xmlns="http://www.w3.org/2000/svg">
<path d="M14.1667 19.5832C14.0562 19.5832 13.9502 19.5393 13.872 19.4611C13.7939 19.383 13.75 19.277 13.75 19.1665C13.75 19.056 13.7939 18.95 13.872 18.8719C13.9502 18.7937 14.0562 18.7498 14.1667 18.7498C14.7192 18.7498 15.2491 18.5303 15.6398 18.1396C16.0305 17.7489 16.25 17.219 16.25 16.6665V2.49984C16.25 2.16832 16.1183 1.85037 15.8839 1.61595C15.6495 1.38153 15.3315 1.24984 15 1.24984H5.00001C4.66848 1.24984 4.35054 1.38153 4.11612 1.61595C3.8817 1.85037 3.75001 2.16832 3.75001 2.49984V14.9998C3.75001 15.1103 3.70611 15.2163 3.62797 15.2945C3.54983 15.3726 3.44385 15.4165 3.33334 15.4165C3.22283 15.4165 3.11685 15.3726 3.03871 15.2945C2.96057 15.2163 2.91667 15.1103 2.91667 14.9998V2.49984C2.91667 1.9473 3.13617 1.4174 3.52687 1.0267C3.91757 0.635997 4.44747 0.416504 5.00001 0.416504H15C15.2736 0.416504 15.5445 0.470391 15.7973 0.575088C16.05 0.679786 16.2797 0.833243 16.4731 1.0267C16.6666 1.22015 16.8201 1.44982 16.9248 1.70258C17.0295 1.95534 17.0833 2.22625 17.0833 2.49984V16.6665C17.0833 17.4401 16.776 18.1819 16.2291 18.7289C15.6821 19.2759 14.9402 19.5832 14.1667 19.5832Z" fill="#162D4C"/>
<path d="M13.75 19.5833H3.33332C2.55978 19.5833 1.81791 19.276 1.27093 18.7291C0.723947 18.1821 0.416656 17.4402 0.416656 16.6667V15C0.416656 14.8895 0.460555 14.7835 0.538695 14.7054C0.616835 14.6272 0.722816 14.5833 0.833323 14.5833H11.25C11.3605 14.5833 11.4665 14.6272 11.5446 14.7054C11.6228 14.7835 11.6667 14.8895 11.6667 15V16.6667C11.6667 17.2192 11.8861 17.7491 12.2769 18.1398C12.6676 18.5305 13.1975 18.75 13.75 18.75C13.8605 18.75 13.9665 18.7939 14.0446 18.872C14.1228 18.9502 14.1667 19.0562 14.1667 19.1667C14.1667 19.2772 14.1228 19.3832 14.0446 19.4613C13.9665 19.5394 13.8605 19.5833 13.75 19.5833ZM1.24999 15.4167V16.6667C1.24999 17.2192 1.46948 17.7491 1.86018 18.1398C2.25088 18.5305 2.78079 18.75 3.33332 18.75H11.7125C11.4346 18.4787 11.2138 18.1547 11.0628 17.797C10.9118 17.4393 10.8338 17.055 10.8333 16.6667V15.4167H1.24999ZM12.5 5.83333H7.49999C7.38948 5.83333 7.2835 5.78943 7.20536 5.71129C7.12722 5.63315 7.08332 5.52717 7.08332 5.41667C7.08332 5.30616 7.12722 5.20018 7.20536 5.12204C7.2835 5.0439 7.38948 5 7.49999 5H12.5C12.6105 5 12.7165 5.0439 12.7946 5.12204C12.8728 5.20018 12.9167 5.30616 12.9167 5.41667C12.9167 5.52717 12.8728 5.63315 12.7946 5.71129C12.7165 5.78943 12.6105 5.83333 12.5 5.83333ZM12.5 9.16667H7.49999C7.38948 9.16667 7.2835 9.12277 7.20536 9.04463C7.12722 8.96649 7.08332 8.86051 7.08332 8.75C7.08332 8.63949 7.12722 8.53351 7.20536 8.45537C7.2835 8.37723 7.38948 8.33333 7.49999 8.33333H12.5C12.6105 8.33333 12.7165 8.37723 12.7946 8.45537C12.8728 8.53351 12.9167 8.63949 12.9167 8.75C12.9167 8.86051 12.8728 8.96649 12.7946 9.04463C12.7165 9.12277 12.6105 9.16667 12.5 9.16667Z" fill="#162D4C"/>
</svg>
