<svg width="20" height="20" viewBox="0 0 20 20" fill="none" xmlns="http://www.w3.org/2000/svg">
<g clip-path="url(#clip0_233_8056)">
<path d="M15.4167 20C14.5102 20 13.624 19.7312 12.8703 19.2276C12.1166 18.7239 11.5291 18.0081 11.1822 17.1706C10.8353 16.3331 10.7445 15.4116 10.9214 14.5225C11.0982 13.6334 11.5348 12.8168 12.1758 12.1758C12.8167 11.5348 13.6334 11.0982 14.5225 10.9214C15.4116 10.7446 16.3331 10.8353 17.1706 11.1822C18.0081 11.5291 18.7239 12.1166 19.2276 12.8703C19.7312 13.624 20 14.5102 20 15.4167C20 16.6322 19.5171 17.798 18.6576 18.6576C17.798 19.5171 16.6322 20 15.4167 20ZM15.4167 11.6667C14.675 11.6667 13.95 11.8866 13.3333 12.2987C12.7166 12.7107 12.2359 13.2964 11.9521 13.9816C11.6683 14.6668 11.594 15.4208 11.7387 16.1483C11.8834 16.8757 12.2406 17.5439 12.765 18.0683C13.2895 18.5928 13.9576 18.9499 14.6851 19.0946C15.4125 19.2393 16.1665 19.165 16.8517 18.8812C17.5369 18.5974 18.1226 18.1167 18.5347 17.5001C18.9467 16.8834 19.1667 16.1583 19.1667 15.4167C19.1667 14.4221 18.7716 13.4683 18.0683 12.765C17.3651 12.0618 16.4112 11.6667 15.4167 11.6667ZM4.16666 11.3542L3.33333 11.3083C3.38701 10.3115 3.66385 9.33952 4.14343 8.46402C4.623 7.58853 5.29307 6.8319 6.10416 6.25L6.59166 6.925C5.88016 7.43315 5.29255 8.09536 4.87266 8.86227C4.45278 9.62918 4.21144 10.481 4.16666 11.3542Z" fill="#162D4C"/>
<path d="M10 18.3333C9.31738 18.3337 8.63871 18.2297 7.9875 18.025L8.24167 17.2292C9.38652 17.5874 10.6135 17.5874 11.7583 17.2292L12.0083 18.025C11.3586 18.2298 10.6813 18.3338 10 18.3333ZM15.8333 11.3542C15.7892 10.4829 15.5489 9.63288 15.1305 8.86742C14.7121 8.10196 14.1262 7.44083 13.4167 6.93333L13.8958 6.25C14.7089 6.82997 15.3804 7.58614 15.8602 8.46204C16.34 9.33794 16.6157 10.3109 16.6667 11.3083L15.8333 11.3542ZM15.4167 16.6667C14.4958 16.6667 13.75 15.7333 13.75 14.5833C13.7317 14.3598 13.7623 14.135 13.8396 13.9245C13.9169 13.714 14.0391 13.5229 14.1976 13.3643C14.3562 13.2057 14.5474 13.0836 14.7579 13.0063C14.9684 12.929 15.1932 12.8984 15.4167 12.9167C15.6402 12.8984 15.865 12.929 16.0755 13.0063C16.286 13.0836 16.4771 13.2057 16.6357 13.3643C16.7943 13.5229 16.9164 13.714 16.9937 13.9245C17.071 14.135 17.1016 14.3598 17.0833 14.5833C17.0833 15.7333 16.3375 16.6667 15.4167 16.6667ZM15.4167 13.75C14.6708 13.75 14.5833 14.225 14.5833 14.5833C14.5833 15.25 14.9708 15.8333 15.4167 15.8333C15.8625 15.8333 16.25 15.25 16.25 14.5833C16.25 14.225 16.1625 13.75 15.4167 13.75Z" fill="#162D4C"/>
<path d="M18.3333 18.75H17.5V17.3708C17.5013 17.271 17.4667 17.174 17.4024 17.0975C17.3382 17.021 17.2486 16.9701 17.15 16.9542L15.4167 16.6667L13.6833 16.9583C13.5847 16.9743 13.4952 17.0252 13.4309 17.1016C13.3667 17.1781 13.3321 17.2751 13.3333 17.375V18.75H12.5V17.3708C12.501 17.0754 12.6065 16.7899 12.798 16.5649C12.9894 16.3398 13.2544 16.1899 13.5458 16.1417L15.35 15.8333H15.4833L17.2875 16.1375C17.5797 16.1859 17.8452 16.3364 18.0367 16.5623C18.2282 16.7881 18.3334 17.0747 18.3333 17.3708V18.75ZM10 9.16667C9.24441 9.16636 8.50061 8.97926 7.83481 8.62201C7.169 8.26475 6.60185 7.74844 6.18383 7.11901C5.7658 6.48958 5.50987 5.76657 5.43882 5.01432C5.36777 4.26207 5.4838 3.50393 5.77658 2.80737C6.06936 2.1108 6.52981 1.49742 7.11695 1.02183C7.70409 0.546234 8.3997 0.223173 9.14188 0.0814011C9.88405 -0.0603708 10.6498 -0.0164563 11.3709 0.209236C12.092 0.434929 12.7461 0.835398 13.275 1.375L12.6792 1.95833C12.071 1.33733 11.266 0.946885 10.4018 0.853762C9.53755 0.760639 8.66783 0.970622 7.94131 1.44781C7.2148 1.92499 6.67661 2.63973 6.41878 3.46983C6.16095 4.29992 6.19948 5.1938 6.5278 5.99862C6.85611 6.80344 7.45382 7.46921 8.21871 7.8821C8.98359 8.29499 9.86816 8.42934 10.7211 8.26219C11.5741 8.09503 12.3426 7.63675 12.895 6.96571C13.4475 6.29467 13.7497 5.45255 13.75 4.58333H14.5833C14.5833 5.79891 14.1005 6.9647 13.2409 7.82424C12.3814 8.68378 11.2156 9.16667 10 9.16667ZM4.58334 20C3.67684 20 2.7907 19.7312 2.03697 19.2276C1.28325 18.7239 0.695789 18.0081 0.348888 17.1706C0.0019859 16.3331 -0.0887794 15.4116 0.0880695 14.5225C0.264918 13.6334 0.701439 12.8168 1.34243 12.1758C1.98342 11.5348 2.80009 11.0982 3.68917 10.9214C4.57825 10.7446 5.49981 10.8353 6.3373 11.1822C7.1748 11.5291 7.89062 12.1166 8.39424 12.8703C8.89786 13.624 9.16667 14.5102 9.16667 15.4167C9.16667 16.6322 8.68378 17.798 7.82424 18.6576C6.9647 19.5171 5.79891 20 4.58334 20ZM4.58334 11.6667C3.84166 11.6667 3.11663 11.8866 2.49995 12.2987C1.88326 12.7107 1.40262 13.2964 1.11879 13.9816C0.834959 14.6668 0.760696 15.4208 0.905391 16.1483C1.05009 16.8757 1.40724 17.5439 1.93168 18.0683C2.45613 18.5928 3.12432 18.9499 3.85175 19.0946C4.57918 19.2393 5.33318 19.165 6.0184 18.8812C6.70362 18.5974 7.28929 18.1167 7.70135 17.5001C8.1134 16.8834 8.33334 16.1583 8.33334 15.4167C8.33334 14.9242 8.23634 14.4366 8.04788 13.9816C7.85943 13.5266 7.58321 13.1132 7.23499 12.765C6.88677 12.4168 6.47337 12.1406 6.0184 11.9521C5.56343 11.7637 5.07579 11.6667 4.58334 11.6667Z" fill="#162D4C"/>
<path d="M4.58334 16.6668C3.6625 16.6668 2.91667 15.7334 2.91667 14.5834C2.8984 14.3599 2.92897 14.1351 3.00626 13.9246C3.08356 13.7141 3.20573 13.523 3.36429 13.3644C3.52286 13.2058 3.71403 13.0836 3.92453 13.0064C4.13504 12.9291 4.35984 12.8985 4.58334 12.9168C4.80684 12.8985 5.03164 12.9291 5.24214 13.0064C5.45265 13.0836 5.64382 13.2058 5.80238 13.3644C5.96095 13.523 6.08312 13.7141 6.16041 13.9246C6.23771 14.1351 6.26828 14.3599 6.25 14.5834C6.25 15.7334 5.50417 16.6668 4.58334 16.6668ZM4.58334 13.7501C3.8375 13.7501 3.75 14.2251 3.75 14.5834C3.75 15.2501 4.1375 15.8334 4.58334 15.8334C5.02917 15.8334 5.41667 15.2501 5.41667 14.5834C5.41667 14.2251 5.32917 13.7501 4.58334 13.7501Z" fill="#162D4C"/>
<path d="M7.50001 18.7498H6.66667V17.3706C6.66796 17.2707 6.63333 17.1737 6.56908 17.0972C6.50484 17.0208 6.41527 16.9699 6.31667 16.9539L4.58334 16.6664L2.85001 16.9581C2.75141 16.9741 2.66184 17.0249 2.59759 17.1014C2.53335 17.1779 2.49872 17.2749 2.50001 17.3748V18.7498H1.66667V17.3706C1.66763 17.0752 1.77319 16.7896 1.96464 16.5646C2.15609 16.3396 2.42104 16.1897 2.71251 16.1414L4.51667 15.8331H4.65001L6.45417 16.1373C6.74634 16.1856 7.01185 16.3362 7.20338 16.562C7.39492 16.7879 7.50003 17.0745 7.50001 17.3706V18.7498ZM10 7.08311C9.94517 7.08342 9.89081 7.07291 9.84004 7.05218C9.78928 7.03144 9.74311 7.00089 9.70417 6.96227L7.62084 4.87894L8.2125 4.28727L10 6.07894L14.7042 1.37061L15.2958 1.96227L10.2958 6.96227C10.2569 7.00089 10.2107 7.03144 10.16 7.05218C10.1092 7.07291 10.0548 7.08342 10 7.08311Z" fill="#162D4C"/>
</g>
<defs>
<clipPath id="clip0_233_8056">
<rect width="20" height="20" fill="white"/>
</clipPath>
</defs>
</svg>
