<svg width="20" height="20" viewBox="0 0 20 20" fill="none" xmlns="http://www.w3.org/2000/svg">
<path d="M17.8571 6.96436H7.03571L3.46428 3.35721C3.10714 3.00007 2.57142 3.00007 2.21428 3.35721L1.35714 4.21436C0.999993 4.5715 0.999993 5.10721 1.35714 5.46436L4.35714 8.46436V15.8215C4.35714 16.4286 4.82142 16.8929 5.42857 16.8929H17.8571C18.4643 16.8929 18.9286 16.4286 18.9286 15.8215V8.03578C18.9286 7.42864 18.4643 6.96436 17.8571 6.96436ZM8.03571 9.21435L8.49999 10.5001L7.21428 10.0358L8.03571 9.21435ZM6.53571 9.67864L3.21428 6.35721L4.32142 5.25007L7.64285 8.5715L6.53571 9.67864ZM1.82142 4.71436L2.67856 3.85721C2.74999 3.78578 2.85714 3.78578 2.92856 3.85721L3.82142 4.75007L2.71428 5.85721L1.82142 4.96436C1.78571 4.89293 1.78571 4.78578 1.82142 4.71436ZM18.2143 15.8215C18.2143 16.0358 18.0714 16.1786 17.8571 16.1786H5.39285C5.17857 16.1786 5.03571 16.0358 5.03571 15.8215V9.17864L6.28571 10.4286C6.32142 10.4644 6.35714 10.5001 6.42857 10.5001L8.96428 11.4286C9.24999 11.5358 9.53571 11.2501 9.42857 10.9644L8.49999 8.42864C8.49999 8.39293 8.46428 8.35721 8.42857 8.28578L7.78571 7.64293H17.8571C18.0714 7.64293 18.2143 7.78578 18.2143 8.00007V15.8215Z" fill="#162D4C"/>
<path d="M16.7857 12.5H6.46429C6.25 12.5 6.10715 12.6429 6.10715 12.8571C6.10715 13.0714 6.25 13.2143 6.46429 13.2143H16.7857C17 13.2143 17.1429 13.0714 17.1429 12.8571C17.1429 12.6429 17 12.5 16.7857 12.5ZM11.6429 14.3929H6.46429C6.25 14.3929 6.10715 14.5357 6.10715 14.75C6.10715 14.9643 6.25 15.1071 6.46429 15.1071H11.6071C11.8214 15.1071 11.9643 14.9643 11.9643 14.75C11.9643 14.5357 11.8214 14.3929 11.6429 14.3929ZM16.7857 8.75H11.2143C11 8.75 10.8571 8.89286 10.8571 9.10714V11C10.8571 11.2143 11 11.3571 11.2143 11.3571H16.7857C17 11.3571 17.1429 11.2143 17.1429 11V9.10714C17.1429 8.89286 17 8.75 16.7857 8.75ZM16.4286 10.6429H11.5714V9.46429H16.4286V10.6429Z" fill="#162D4C"/>
</svg>
