<svg width="20" height="20" viewBox="0 0 20 20" fill="none" xmlns="http://www.w3.org/2000/svg">
<path d="M17.3061 4.83766H16.3717V3.90328C16.3717 3.25703 15.8461 2.73141 15.1998 2.73141H14.2655V1.79688C14.2655 1.15062 13.7398 0.625 13.0936 0.625H2.69391C2.04766 0.625 1.52203 1.15062 1.52203 1.79688V13.9905C1.52203 14.6367 2.04766 15.1623 2.69391 15.1623H3.62828V16.0967C3.62828 16.743 4.15391 17.2686 4.80016 17.2686H5.73453V18.203C5.73453 18.8492 6.26016 19.3748 6.90641 19.3748H17.3059C17.9522 19.3748 18.4778 18.8492 18.4778 18.203V6.00953C18.478 5.36328 17.9523 4.83766 17.3061 4.83766ZM17.6967 18.2031C17.6967 18.4186 17.5216 18.5938 17.3061 18.5938H6.90656C6.6911 18.5938 6.51594 18.4186 6.51594 18.2031V17.2687H15.1997C15.8459 17.2687 16.3716 16.7431 16.3716 16.0969V5.61891H17.3059C17.5214 5.61891 17.6966 5.79422 17.6966 6.00953L17.6967 18.2031ZM4.40969 16.0969V15.1625H13.0934C13.7397 15.1625 14.2653 14.6369 14.2653 13.9906V3.5125H15.1997C15.4152 3.5125 15.5903 3.68781 15.5903 3.90312V16.0967C15.5903 16.3122 15.4152 16.4873 15.1997 16.4873H4.80031C4.58485 16.4875 4.40969 16.3122 4.40969 16.0969ZM2.30328 13.9905V1.79688C2.30328 1.58156 2.47844 1.40625 2.69391 1.40625H13.0934C13.3089 1.40625 13.4841 1.58156 13.4841 1.79688V13.9905C13.4841 14.2059 13.3089 14.3811 13.0934 14.3811H2.69391C2.47844 14.3811 2.30328 14.2059 2.30328 13.9905Z" fill="#162D4C"/>
<path d="M10.6828 2.96875H11.9219V4.13906C11.9219 4.35484 12.0967 4.52969 12.3125 4.52969C12.5283 4.52969 12.7031 4.35484 12.7031 4.13906V2.57812C12.7031 2.36234 12.5283 2.1875 12.3125 2.1875H10.6828C10.467 2.1875 10.2922 2.36234 10.2922 2.57812C10.2922 2.79391 10.467 2.96875 10.6828 2.96875Z" fill="#162D4C"/>
</svg>
