<svg width="17" height="16" viewBox="0 0 17 16" fill="none" xmlns="http://www.w3.org/2000/svg">
<g clip-path="url(#clip0_11_1189)">
<path d="M12.7668 0.533325H14.3668C14.7911 0.533325 15.1981 0.701896 15.4982 1.00195C15.7982 1.30201 15.9668 1.70898 15.9668 2.13333V3.73333M1.03345 3.73333V2.13333C1.03345 1.70898 1.20202 1.30201 1.50208 1.00195C1.80213 0.701896 2.2091 0.533325 2.63345 0.533325H4.23345M4.23345 15.4667H2.63345C2.2091 15.4667 1.80213 15.2981 1.50208 14.998C1.20202 14.698 1.03345 14.291 1.03345 13.8667V12.2667M15.9668 12.2667V13.8667C15.9668 14.291 15.7982 14.698 15.4982 14.998C15.1981 15.2981 14.7911 15.4667 14.3668 15.4667H12.7668" stroke="#162D4C" stroke-linecap="round" stroke-linejoin="round"/>
<path d="M5.03351 5.86665C5.18079 5.86665 5.30018 5.62787 5.30018 5.33332C5.30018 5.03877 5.18079 4.79999 5.03351 4.79999C4.88624 4.79999 4.76685 5.03877 4.76685 5.33332C4.76685 5.62787 4.88624 5.86665 5.03351 5.86665Z" stroke="#162D4C" stroke-miterlimit="10"/>
<path d="M5.48315 11.1077C5.87918 11.5043 6.34948 11.8188 6.86718 12.0335C7.38487 12.2481 7.9398 12.3586 8.50022 12.3586C9.06064 12.3586 9.61557 12.2481 10.1333 12.0335C10.651 11.8188 11.1213 11.5043 11.5173 11.1077" stroke="#162D4C" stroke-linecap="round" stroke-linejoin="round"/>
<path d="M11.9669 5.86665C12.1141 5.86665 12.2335 5.62787 12.2335 5.33332C12.2335 5.03877 12.1141 4.79999 11.9669 4.79999C11.8196 4.79999 11.7002 5.03877 11.7002 5.33332C11.7002 5.62787 11.8196 5.86665 11.9669 5.86665Z" stroke="#162D4C" stroke-miterlimit="10"/>
<path d="M8.50002 4.79999V7.46665C8.50009 7.60675 8.47254 7.74549 8.41896 7.87493C8.36538 8.00438 8.28682 8.122 8.18775 8.22106C8.08869 8.32012 7.97107 8.39869 7.84163 8.45227C7.71218 8.50585 7.57345 8.53339 7.43335 8.53332" stroke="#162D4C" stroke-linecap="round" stroke-linejoin="round"/>
</g>
<defs>
<clipPath id="clip0_11_1189">
<rect width="16" height="16" fill="white" transform="translate(0.5)"/>
</clipPath>
</defs>
</svg>
