<svg width="20" height="20" viewBox="0 0 20 20" fill="none" xmlns="http://www.w3.org/2000/svg">
<path d="M10.9844 17.5H4.15062C3.72188 17.4902 3.31451 17.3108 3.01777 17.0012C2.72103 16.6915 2.55912 16.2769 2.5675 15.8481V4.15188C2.55912 3.7231 2.72103 3.30848 3.01777 2.99885C3.31451 2.68923 3.72188 2.50984 4.15062 2.5H10.9844C11.4131 2.50984 11.8205 2.68923 12.1172 2.99885C12.414 3.30848 12.5759 3.7231 12.5675 4.15188C12.5675 4.31764 12.5017 4.47661 12.3844 4.59382C12.2672 4.71103 12.1083 4.77688 11.9425 4.77688C11.7767 4.77688 11.6178 4.71103 11.5006 4.59382C11.3833 4.47661 11.3175 4.31764 11.3175 4.15188C11.3251 4.05474 11.2945 3.95847 11.2323 3.88346C11.1702 3.80845 11.0812 3.76059 10.9844 3.75H4.15062C4.05377 3.76059 3.96484 3.80845 3.90266 3.88346C3.84048 3.95847 3.80994 4.05474 3.8175 4.15188V15.8481C3.80994 15.9453 3.84048 16.0415 3.90266 16.1165C3.96484 16.1915 4.05377 16.2394 4.15062 16.25H10.9844C11.0812 16.2394 11.1702 16.1915 11.2323 16.1165C11.2945 16.0415 11.3251 15.9453 11.3175 15.8481C11.3175 15.6824 11.3833 15.5234 11.5006 15.4062C11.6178 15.289 11.7767 15.2231 11.9425 15.2231C12.1083 15.2231 12.2672 15.289 12.3844 15.4062C12.5017 15.5234 12.5675 15.6824 12.5675 15.8481C12.5759 16.2769 12.414 16.6915 12.1172 17.0012C11.8205 17.3108 11.4131 17.4902 10.9844 17.5Z" fill="white"/>
<path d="M17.1875 9.30518L14.9312 6.48456C14.8799 6.42046 14.8165 6.36709 14.7446 6.3275C14.6727 6.2879 14.5937 6.26287 14.5121 6.25381C14.4305 6.24476 14.3479 6.25187 14.269 6.27473C14.1902 6.29759 14.1166 6.33576 14.0525 6.38706C13.9884 6.43836 13.935 6.50178 13.8954 6.5737C13.8558 6.64562 13.8308 6.72464 13.8218 6.80624C13.8127 6.88784 13.8198 6.97042 13.8427 7.04928C13.8655 7.12813 13.9037 7.20171 13.955 7.26581L15.6419 9.37518H6.3175C6.15174 9.37518 5.99277 9.44103 5.87556 9.55824C5.75835 9.67545 5.6925 9.83442 5.6925 10.0002C5.6925 10.1659 5.75835 10.3249 5.87556 10.4421C5.99277 10.5593 6.15174 10.6252 6.3175 10.6252H15.6419L13.9544 12.7346C13.9031 12.7987 13.8649 12.8722 13.842 12.9511C13.8192 13.0299 13.8121 13.1125 13.8211 13.1941C13.8302 13.2757 13.8552 13.3547 13.8948 13.4267C13.9344 13.4986 13.9878 13.562 14.0519 13.6133C14.1813 13.7169 14.3466 13.7648 14.5114 13.7466C14.6762 13.7283 14.827 13.6453 14.9306 13.5158L17.1875 10.6958C17.3466 10.499 17.4333 10.2536 17.4333 10.0005C17.4333 9.74743 17.3466 9.50201 17.1875 9.30518Z" fill="white"/>
</svg>
