<svg width="20" height="20" viewBox="0 0 20 20" fill="none" xmlns="http://www.w3.org/2000/svg">
<g clip-path="url(#clip0_204_7870)">
<path d="M11.7724 17.3043C12.3536 14.9757 11.0651 11.7954 8.99483 9.98017C9.10155 9.65872 9.02698 9.28769 8.81709 9.03204C9.56177 6.57109 9.11675 6.03714 8.96723 5.86096C8.39284 5.18306 6.98156 5.13038 6.5623 5.13037C6.14299 5.13037 4.73155 5.18317 4.15751 5.86081C4.00758 6.03728 3.56188 6.57187 4.30915 9.03801C4.09707 9.29399 4.02271 9.65788 4.13012 9.97986C2.05877 11.7965 0.770228 14.9753 1.35283 17.3069C1.38957 17.4184 1.35722 17.5443 1.27101 17.6273C0.685679 18.1882 0.472514 18.7968 0.738017 19.1385C0.859324 19.2986 1.06288 19.5664 3.5586 19.1584C3.59523 19.1521 3.6291 19.154 3.67381 19.1646C5.16507 19.4609 7.96326 19.4612 9.45704 19.1631C9.49534 19.154 9.52876 19.1521 9.56492 19.1582C12.0555 19.5661 12.2644 19.3003 12.3855 19.1398C12.6513 18.7948 12.4378 18.1873 11.854 17.6279C11.7674 17.5445 11.735 17.4183 11.7724 17.3043ZM8.29188 9.96588C8.21727 10.0422 8.11579 10.0843 8.00593 10.0843H5.11851C4.98259 10.0843 4.85488 10.0156 4.77507 9.90122C4.67363 9.75864 4.68449 9.51313 4.83088 9.37964C4.84141 9.37271 4.85161 9.3652 4.86113 9.35707C4.89688 9.32793 4.93602 9.30544 4.9776 9.28994C5.02244 9.27401 5.06912 9.26411 5.1179 9.26428L8.00669 9.26428C8.05297 9.26428 8.09773 9.2726 8.14025 9.28757C8.14175 9.28807 8.14496 9.28902 8.14606 9.28938C8.18896 9.30831 8.23057 9.32826 8.26899 9.36179C8.43161 9.47121 8.45593 9.75832 8.35581 9.8934C8.33796 9.91888 8.31752 9.94009 8.29188 9.96588ZM4.6342 6.26501C5.12538 5.60118 7.99959 5.60115 8.49055 6.26523C8.66877 6.47528 8.69532 7.21762 8.27281 8.67453C8.26216 8.67225 8.25126 8.67055 8.24092 8.66705C8.22032 8.66095 8.19911 8.65652 8.17744 8.65363C8.16895 8.65147 8.16058 8.65118 8.15205 8.65036C8.10261 8.64602 8.05633 8.63999 8.00593 8.63745L5.11851 8.63745C5.06114 8.63745 5.0088 8.64233 4.95631 8.65179C4.95341 8.6524 4.95036 8.65286 4.94746 8.65363C4.92564 8.65637 4.90428 8.66095 4.88352 8.66705C4.87318 8.67063 4.86212 8.6729 4.85133 8.67392C4.42912 7.21732 4.45567 6.47528 4.6342 6.26501ZM9.66487 18.5413C9.5457 18.5222 9.43003 18.5267 9.31758 18.554C7.72699 18.8345 5.4012 18.8341 3.81327 18.5555C3.69415 18.5269 3.57867 18.5222 3.45866 18.5415C2.11665 18.7612 1.47364 18.7685 1.25483 18.733C1.28092 18.6185 1.39613 18.3732 1.7039 18.0781C2.28615 17.517 1.76555 16.8928 1.8217 16.1718C1.8217 14.4611 2.83335 11.8677 4.48359 10.4922C4.66416 10.6315 4.89088 10.7042 5.11851 10.7093L8.00593 10.7093C8.23487 10.7088 8.45628 10.6247 8.64009 10.4914C10.2909 11.8668 11.3029 14.4608 11.3029 16.1718C11.3582 16.8942 10.8394 17.5184 11.421 18.0787C11.7285 18.3733 11.8435 18.6187 11.8696 18.733C11.651 18.7676 11.0078 18.7607 9.66487 18.5413Z" fill="#162D4C"/>
<path d="M19.0623 7.1875H17.1873V0.9375C17.1873 0.764923 17.0474 0.625 16.8748 0.625H5.6248C5.45223 0.625 5.3123 0.764923 5.3123 0.9375V4.25934C5.3123 4.43192 5.45223 4.57184 5.6248 4.57184C5.79738 4.57184 5.9373 4.43192 5.9373 4.25934V1.25H16.5623V7.5V9.53125C16.5655 9.80807 16.6484 10.0812 16.7991 10.3125H10.881C10.7084 10.3125 10.5685 10.4524 10.5685 10.625C10.5685 10.7976 10.7084 10.9375 10.881 10.9375C10.9212 10.9281 17.824 10.9555 17.8557 10.928C18.666 11.0115 19.3792 10.3412 19.3748 9.53125L19.3748 7.5C19.3748 7.32742 19.2349 7.1875 19.0623 7.1875ZM18.7498 9.53125C18.753 10.0006 18.3232 10.3774 17.857 10.3032C17.4827 10.2536 17.1809 9.91157 17.1873 9.53125L17.1873 7.8125H18.7498V9.53125Z" fill="#162D4C"/>
<path d="M11.8748 2.8125H9.6873C9.27931 2.81418 9.27815 3.43572 9.68732 3.4375L11.8748 3.4375C12.2828 3.43582 12.284 2.81428 11.8748 2.8125ZM14.6873 3.4375C15.0956 3.43576 15.0962 2.81427 14.6873 2.8125L13.4373 2.8125C13.029 2.81424 13.0284 3.43573 13.4373 3.4375L14.6873 3.4375ZM10.6248 4.6875C10.6248 4.86008 10.7647 5 10.9373 5H14.6873C14.8599 5 14.9998 4.86008 14.9998 4.6875C14.9998 4.51492 14.8599 4.375 14.6873 4.375H10.9373C10.7647 4.375 10.6248 4.51492 10.6248 4.6875ZM11.562 6.5625C11.3894 6.5625 11.2495 6.70242 11.2495 6.875V9.0625C11.2495 9.23508 11.3894 9.375 11.562 9.375H14.062C14.2346 9.375 14.3745 9.23508 14.3745 9.0625V6.875C14.3745 6.70242 14.2346 6.5625 14.062 6.5625H11.562ZM13.7495 8.75H11.8745V7.1875H13.7495V8.75Z" fill="#162D4C"/>
</g>
<defs>
<clipPath id="clip0_204_7870">
<rect width="20" height="20" fill="white"/>
</clipPath>
</defs>
</svg>
