<svg width="20" height="20" viewBox="0 0 20 20" fill="none" xmlns="http://www.w3.org/2000/svg">
<g clip-path="url(#clip0_202_7839)">
<path d="M4.54067 18.0852C4.56344 18.1249 4.59417 18.1596 4.63093 18.1869C4.66769 18.2143 4.7097 18.2338 4.75433 18.2442C6.03809 18.5336 7.35072 18.6753 8.66667 18.6665C9.98373 18.6771 11.2977 18.5365 12.5827 18.2475C12.6272 18.237 12.6692 18.2175 12.7058 18.1901C12.7425 18.1627 12.7732 18.1281 12.7959 18.0883C12.8186 18.0486 12.8328 18.0046 12.8378 17.9591C12.8428 17.9136 12.8383 17.8675 12.8247 17.8238L11.3913 13.2338C11.3701 13.1662 11.3277 13.107 11.2705 13.0651C11.2134 13.0231 11.1443 13.0005 11.0733 13.0005H6.26333C6.1924 13.0005 6.12331 13.0231 6.06612 13.0651C6.00893 13.107 5.96661 13.1662 5.94533 13.2338L4.512 17.8205C4.49834 17.8642 4.49383 17.9103 4.49876 17.9558C4.5037 18.0013 4.51796 18.0454 4.54067 18.0852ZM6.50833 13.6665H10.828L12.08 17.6755C10.9561 17.8987 9.81248 18.0074 8.66667 17.9998C7.52196 18.0061 6.37956 17.8963 5.257 17.6722L6.50833 13.6665Z" fill="#162D4C"/>
<path d="M17.4312 3.97068C17.5273 3.85797 17.5968 3.72507 17.6345 3.58185C17.6722 3.43862 17.6771 3.28874 17.649 3.14333C17.6208 2.99793 17.5603 2.86073 17.4719 2.74191C17.3835 2.6231 17.2694 2.52572 17.1382 2.45701L17.7029 1.73868C17.7766 1.6389 17.8211 1.52051 17.8312 1.39684C17.8413 1.27317 17.8168 1.14913 17.7602 1.03868C17.7029 0.925977 17.6153 0.831475 17.5072 0.765769C17.3992 0.700063 17.275 0.665751 17.1486 0.66668H17.0486C17.0472 0.560826 17.0206 0.45683 16.9709 0.363346C16.9124 0.253013 16.8248 0.160811 16.7176 0.0967565C16.6104 0.0327015 16.4878 -0.000757751 16.3629 1.30221e-05H14.3042C14.1796 -0.000513812 14.0572 0.0330608 13.9502 0.0971027C13.8433 0.161145 13.7559 0.253214 13.6976 0.363346C13.6479 0.45683 13.6213 0.560826 13.6199 0.66668H13.5199C13.3931 0.665595 13.2686 0.699939 13.1602 0.765842C13.0519 0.831745 12.9642 0.926587 12.9069 1.03968C12.8501 1.15182 12.826 1.27767 12.8373 1.40286C12.8486 1.52805 12.8949 1.64754 12.9709 1.74768L13.5289 2.45701C13.3977 2.52572 13.2836 2.6231 13.1952 2.74191C13.1068 2.86073 13.0463 2.99793 13.0181 3.14333C12.99 3.28874 12.9949 3.43862 13.0326 3.58185C13.0703 3.72507 13.1398 3.85797 13.2359 3.97068C12.4742 4.33504 11.83 4.90583 11.3765 5.61813C10.9231 6.33043 10.6786 7.15567 10.6709 8.00001H3.87956L2.29622 2.39568C2.224 2.14036 2.0533 1.9242 1.8217 1.79474C1.59009 1.66527 1.31654 1.63312 1.06122 1.70535C0.805909 1.77757 0.589743 1.94827 0.460281 2.17987C0.330818 2.41148 0.298664 2.68503 0.370891 2.94035L3.19022 12.9403C3.25128 13.149 3.37804 13.3324 3.55166 13.4633C3.72528 13.5941 3.93648 13.6655 4.15389 13.6667H4.41022L3.33356 17.117C2.73378 16.9068 2.16724 16.6117 1.65122 16.2407C1.44787 16.0728 1.18731 15.9903 0.924391 16.0107C0.66147 16.031 0.416688 16.1525 0.241558 16.3497C0.0711419 16.5525 -0.0126971 16.8142 0.00813158 17.0783C0.0289602 17.3424 0.152786 17.5877 0.352891 17.7613C0.624558 17.9907 3.16922 20 8.66689 20C14.1646 20 16.7092 17.9907 16.9832 17.7597C17.1789 17.5861 17.2988 17.3427 17.3171 17.0817C17.3355 16.8207 17.2508 16.5629 17.0813 16.3636C16.9117 16.1644 16.6709 16.0395 16.4103 16.0157C16.1498 15.992 15.8903 16.0713 15.6876 16.2367C15.1727 16.613 14.6054 16.9118 14.0039 17.1237L12.9236 13.6667H13.3336C13.5104 13.6667 13.6799 13.5964 13.805 13.4714C13.93 13.3464 14.0002 13.1768 14.0002 13V12.6667C14.0002 12.4015 13.8949 12.1471 13.7073 11.9596C13.5198 11.772 13.2654 11.6667 13.0002 11.6667H11.6669V10.2333C12.4906 10.9367 13.7919 11.3333 15.3336 11.3333C18.1686 11.3333 20.0002 10.051 20.0002 8.06668C20.0051 7.21047 19.7661 6.37056 19.3112 5.6452C18.8563 4.91984 18.2042 4.33902 17.4312 3.97068ZM14.0002 3.66668C13.9118 3.66668 13.827 3.63156 13.7645 3.56905C13.702 3.50654 13.6669 3.42175 13.6669 3.33335C13.6669 3.24494 13.702 3.16016 13.7645 3.09764C13.827 3.03513 13.9118 3.00001 14.0002 3.00001H16.6669C16.7553 3.00001 16.8401 3.03513 16.9026 3.09764C16.9651 3.16016 17.0002 3.24494 17.0002 3.33335C17.0002 3.42175 16.9651 3.50654 16.9026 3.56905C16.8401 3.63156 16.7553 3.66668 16.6669 3.66668H14.0002ZM14.1299 1.33335C14.1939 1.33334 14.2566 1.31487 14.3105 1.28016C14.3643 1.24545 14.407 1.19597 14.4334 1.13763C14.4599 1.07929 14.469 1.01457 14.4596 0.951205C14.4502 0.887842 14.4228 0.828523 14.3806 0.780346L14.2896 0.67668L14.3042 0.66668L16.3766 0.67768L16.2866 0.780346C16.2443 0.828523 16.2169 0.887842 16.2075 0.951205C16.1982 1.01457 16.2072 1.07929 16.2337 1.13763C16.2601 1.19597 16.3028 1.24545 16.3566 1.28016C16.4105 1.31487 16.4732 1.33334 16.5372 1.33335L17.1722 1.33568L16.3876 2.33335H14.2829L13.5186 1.33335H14.1299ZM13.3336 12.6667V13H12.4702C12.4179 13 12.3663 13.0123 12.3196 13.036C12.2729 13.0596 12.2324 13.0939 12.2015 13.1361C12.1705 13.1783 12.1499 13.2272 12.1414 13.2789C12.1328 13.3305 12.1365 13.3834 12.1522 13.4333L13.4722 17.6567C13.4855 17.6993 13.5072 17.7387 13.5361 17.7728C13.5649 17.8068 13.6003 17.8347 13.6401 17.8548C13.6799 17.8749 13.7234 17.8868 13.7679 17.8899C13.8124 17.8929 13.8571 17.8869 13.8992 17.8723C14.6951 17.6208 15.4445 17.2407 16.1176 16.747C16.185 16.6922 16.2712 16.6659 16.3578 16.6738C16.4444 16.6816 16.5245 16.723 16.581 16.789C16.6375 16.855 16.666 16.9406 16.6604 17.0273C16.6547 17.114 16.6155 17.1952 16.5509 17.2533C16.4336 17.3513 14.0002 19.3333 8.66689 19.3333C3.31556 19.3333 0.883224 17.337 0.784224 17.2533C0.717083 17.1959 0.675473 17.1142 0.668536 17.0262C0.661598 16.9381 0.6899 16.8509 0.747224 16.7837C0.802956 16.7199 0.880581 16.6793 0.964762 16.67C1.04894 16.6607 1.13356 16.6833 1.20189 16.7333C1.87702 17.2359 2.63315 17.6192 3.43756 17.8667C3.47982 17.8811 3.52452 17.8871 3.56909 17.8842C3.61366 17.8813 3.65721 17.8695 3.69722 17.8497C3.737 17.8292 3.77226 17.801 3.80089 17.7666C3.82952 17.7323 3.85095 17.6925 3.86389 17.6497L5.18056 13.433C5.19626 13.3831 5.19998 13.3302 5.19143 13.2785C5.18287 13.2269 5.16228 13.178 5.13131 13.1358C5.10035 13.0936 5.05988 13.0593 5.01319 13.0356C4.9665 13.012 4.9149 12.9997 4.86256 12.9997H4.15256C4.0795 13 4.00836 12.9764 3.95006 12.9324C3.89176 12.8883 3.84954 12.8264 3.82989 12.756L1.01289 2.76001C0.988581 2.67519 0.998895 2.58419 1.04157 2.50696C1.08425 2.42973 1.15581 2.37257 1.24056 2.34801C1.27077 2.33904 1.30205 2.3341 1.33356 2.33335C1.40648 2.33369 1.47733 2.3576 1.53554 2.40151C1.59376 2.44543 1.63621 2.50699 1.65656 2.57701L3.30822 8.42368C3.3279 8.49359 3.36988 8.55515 3.42776 8.59902C3.48564 8.64288 3.55627 8.66664 3.62889 8.66668H12.6669C12.7553 8.66668 12.8401 8.7018 12.9026 8.76431C12.9651 8.82682 13.0002 8.91161 13.0002 9.00001C13.0003 9.0446 12.9912 9.08872 12.9736 9.12966C12.9559 9.17059 12.93 9.20747 12.8976 9.23801C12.8675 9.26867 12.8316 9.29292 12.792 9.30931C12.7523 9.3257 12.7098 9.33387 12.6669 9.33335H4.00022C3.94873 9.33332 3.89793 9.34523 3.8518 9.36814C3.80568 9.39105 3.7655 9.42433 3.7344 9.46538C3.7033 9.50642 3.68213 9.55412 3.67256 9.60472C3.66299 9.65531 3.66527 9.70744 3.67922 9.75701L4.33589 12.0903C4.35559 12.1603 4.39761 12.2219 4.45556 12.2658C4.51351 12.3097 4.58421 12.3334 4.65689 12.3333H13.0002C13.0886 12.3333 13.1734 12.3685 13.2359 12.431C13.2984 12.4935 13.3336 12.5783 13.3336 12.6667ZM8.00022 11.6667V10H9.66689V11.6667H8.00022ZM4.90989 11.6667L4.44056 10H6.00022V11.6667H4.90989ZM6.66689 10H7.33356V11.6667H6.66689V10ZM10.3336 11.6667V10H11.0002V11.6667H10.3336ZM15.3336 10.6667C14.3393 10.7041 13.3532 10.4738 12.4782 10H12.6669C12.9317 9.9987 13.1853 9.89292 13.3725 9.70567C13.5598 9.51842 13.6656 9.26482 13.6669 9.00001C13.6669 8.7348 13.5615 8.48044 13.374 8.29291C13.1865 8.10537 12.9321 8.00001 12.6669 8.00001H11.3376C11.3772 5.32635 13.7069 4.44835 14.0526 4.33335H16.6136C16.9522 4.44968 19.3336 5.36435 19.3336 8.06668C19.3336 9.98368 17.2669 10.6667 15.3336 10.6667Z" fill="#162D4C"/>
</g>
<defs>
<clipPath id="clip0_202_7839">
<rect width="20" height="20" fill="white"/>
</clipPath>
</defs>
</svg>
