<svg width="20" height="20" viewBox="0 0 20 20" fill="none" xmlns="http://www.w3.org/2000/svg">
<path d="M9.6 11.6003H6C5.50217 11.6288 5.01313 11.4602 4.63879 11.1307C4.26445 10.8013 4.03495 10.3377 4 9.84026C4.03495 9.34284 4.26445 8.87921 4.63879 8.54979C5.01313 8.22037 5.50217 8.05168 6 8.08026H9.6C10.0978 8.05168 10.5869 8.22037 10.9612 8.54979C11.3356 8.87921 11.5651 9.34284 11.6 9.84026C11.5651 10.3377 11.3356 10.8013 10.9612 11.1307C10.5869 11.4602 10.0978 11.6288 9.6 11.6003ZM6 8.88026C5.71528 8.85706 5.43245 8.94354 5.20938 9.12199C4.98631 9.30044 4.83987 9.55739 4.8 9.84026C4.83987 10.1231 4.98631 10.3801 5.20938 10.5585C5.43245 10.737 5.71528 10.8235 6 10.8003H9.6C9.88472 10.8235 10.1676 10.737 10.3906 10.5585C10.6137 10.3801 10.7601 10.1231 10.8 9.84026C10.7601 9.55739 10.6137 9.30044 10.3906 9.12199C10.1676 8.94354 9.88472 8.85706 9.6 8.88026H6ZM7.8 8.00026C7.40127 8.00026 7.0115 7.88203 6.67997 7.66051C6.34844 7.43898 6.09005 7.12413 5.93746 6.75575C5.78487 6.38738 5.74495 5.98203 5.82274 5.59096C5.90052 5.19989 6.09253 4.84068 6.37447 4.55874C6.65642 4.27679 7.01563 4.08479 7.4067 4.007C7.79776 3.92921 8.20311 3.96914 8.57149 4.12172C8.93987 4.27431 9.25472 4.5327 9.47624 4.86423C9.69776 5.19576 9.816 5.58554 9.816 5.98426C9.816 6.51894 9.6036 7.03172 9.22553 7.40979C8.84745 7.78786 8.33468 8.00026 7.8 8.00026ZM7.8 4.80026C7.5595 4.80026 7.3244 4.87158 7.12443 5.0052C6.92446 5.13881 6.7686 5.32872 6.67656 5.55092C6.58453 5.77311 6.56045 6.01761 6.60737 6.25349C6.65429 6.48937 6.7701 6.70604 6.94016 6.8761C7.11022 7.04616 7.32689 7.16198 7.56277 7.2089C7.79865 7.25582 8.04315 7.23174 8.26534 7.1397C8.48754 7.04766 8.67745 6.89181 8.81107 6.69184C8.94468 6.49187 9.016 6.25676 9.016 6.01626C9.016 5.69376 8.88789 5.38447 8.65984 5.15642C8.4318 4.92838 8.1225 4.80026 7.8 4.80026Z" fill="#DFAC0F"/>
<path d="M7.8 9.83993C7.74754 9.84057 7.69553 9.83023 7.64731 9.80956C7.59908 9.78889 7.55572 9.75836 7.52 9.71993L6.664 8.87193C6.61257 8.84125 6.56868 8.7994 6.53557 8.74949C6.50247 8.69957 6.481 8.64286 6.47275 8.58354C6.4645 8.52422 6.46967 8.4638 6.48789 8.40674C6.50611 8.34969 6.53691 8.29745 6.57801 8.25389C6.61912 8.21033 6.66949 8.17655 6.72539 8.15506C6.78129 8.13357 6.84131 8.1249 6.90101 8.12971C6.96071 8.13451 7.01858 8.15266 7.07032 8.18281C7.12207 8.21297 7.16639 8.25436 7.2 8.30393L7.768 8.87193L8.336 8.30393C8.41132 8.22861 8.51348 8.1863 8.62 8.1863C8.72652 8.1863 8.82868 8.22861 8.904 8.30393C8.97932 8.37926 9.02164 8.48141 9.02164 8.58793C9.02164 8.69445 8.97932 8.79661 8.904 8.87193L8.08 9.71993C8.04429 9.75836 8.00092 9.78889 7.9527 9.80956C7.90448 9.83023 7.85246 9.84057 7.8 9.83993Z" fill="#DFAC0F"/>
<path d="M16.4 18.4001H3.60001C3.06957 18.4001 2.56087 18.1894 2.18579 17.8143C1.81072 17.4392 1.60001 16.9305 1.60001 16.4001V3.6001C1.60001 3.06966 1.81072 2.56096 2.18579 2.18588C2.56087 1.81081 3.06957 1.6001 3.60001 1.6001H16.4C16.9304 1.6001 17.4391 1.81081 17.8142 2.18588C18.1893 2.56096 18.4 3.06966 18.4 3.6001V16.4001C18.4 16.9305 18.1893 17.4392 17.8142 17.8143C17.4391 18.1894 16.9304 18.4001 16.4 18.4001ZM3.60001 2.4001C3.28175 2.4001 2.97652 2.52653 2.75148 2.75157C2.52643 2.97661 2.40001 3.28184 2.40001 3.6001V16.4001C2.40001 16.7184 2.52643 17.0236 2.75148 17.2486C2.97652 17.4737 3.28175 17.6001 3.60001 17.6001H16.4C16.7183 17.6001 17.0235 17.4737 17.2485 17.2486C17.4736 17.0236 17.6 16.7184 17.6 16.4001V3.6001C17.6 3.28184 17.4736 2.97661 17.2485 2.75157C17.0235 2.52653 16.7183 2.4001 16.4 2.4001H3.60001Z" fill="#DFAC0F"/>
<path d="M12.4 13.6003H4.4C4.29391 13.6003 4.19217 13.5582 4.11716 13.4831C4.04214 13.4081 4 13.3064 4 13.2003C4 13.0942 4.04214 12.9925 4.11716 12.9174C4.19217 12.8424 4.29391 12.8003 4.4 12.8003H12.4C12.5061 12.8003 12.6078 12.8424 12.6828 12.9174C12.7579 12.9925 12.8 13.0942 12.8 13.2003C12.8 13.3064 12.7579 13.4081 12.6828 13.4831C12.6078 13.5582 12.5061 13.6003 12.4 13.6003ZM15.6 15.2003H4.4C4.29391 15.2003 4.19217 15.1582 4.11716 15.0831C4.04214 15.0081 4 14.9064 4 14.8003C4 14.6942 4.04214 14.5925 4.11716 14.5174C4.19217 14.4424 4.29391 14.4003 4.4 14.4003H15.6C15.7061 14.4003 15.8078 14.4424 15.8828 14.5174C15.9579 14.5925 16 14.6942 16 14.8003C16 14.9064 15.9579 15.0081 15.8828 15.0831C15.8078 15.1582 15.7061 15.2003 15.6 15.2003Z" fill="#DFAC0F"/>
</svg>
