<svg width="16" height="16" viewBox="0 0 16 16" fill="none" xmlns="http://www.w3.org/2000/svg">
<g clip-path="url(#clip0_11_1171)">
<path d="M0.661133 6.22407V9.97407C0.661546 10.4013 0.831436 10.8109 1.13351 11.1129C1.43559 11.415 1.84518 11.5849 2.27238 11.5853H3.38957V11.9538C3.38947 12.1276 3.44094 12.2975 3.53748 12.4421C3.63402 12.5867 3.77127 12.6993 3.93188 12.7659C4.09248 12.8324 4.26921 12.8497 4.43969 12.8158C4.61017 12.7818 4.76673 12.698 4.88957 12.575L5.87926 11.5853H9.03832C9.46547 11.5848 9.87498 11.4149 10.177 11.1128C10.479 10.8108 10.6488 10.4012 10.6493 9.97407V6.22407C10.6488 5.79692 10.479 5.38738 10.177 5.08531C9.87498 4.78325 9.46547 4.61332 9.03832 4.61282H2.27238C1.84518 4.61324 1.43559 4.78313 1.13351 5.0852C0.831436 5.38728 0.661546 5.79687 0.661133 6.22407ZM1.47363 6.22407C1.47388 6.01231 1.55811 5.80929 1.70786 5.65955C1.8576 5.5098 2.06062 5.42557 2.27238 5.42532H9.03832C9.25006 5.42557 9.45305 5.50982 9.60274 5.65956C9.75243 5.80931 9.83659 6.01234 9.83676 6.22407V9.97407C9.83659 10.1858 9.75243 10.3888 9.60274 10.5386C9.45305 10.6883 9.25006 10.7726 9.03832 10.7728H5.71082C5.60309 10.7729 5.49979 10.8157 5.42363 10.8919L4.31488 12C4.30896 12.0063 4.30179 12.0113 4.29382 12.0147C4.28586 12.0181 4.27728 12.0198 4.26863 12.0197C4.25972 12.0197 4.25091 12.0179 4.2427 12.0144C4.23033 12.0094 4.2198 12.0007 4.21253 11.9895C4.20527 11.9784 4.20161 11.9652 4.20207 11.9519V11.1775C4.20207 11.0698 4.15927 10.9664 4.08308 10.8902C4.0069 10.8141 3.90356 10.7713 3.79582 10.7713H2.27238C2.06059 10.7711 1.85752 10.6869 1.70776 10.5371C1.55801 10.3874 1.4738 10.1843 1.47363 9.97251V6.22407Z" fill="#575151"/>
<path d="M3.23462 7.53967H8.07618C8.18393 7.53967 8.28726 7.49687 8.36344 7.42068C8.43963 7.3445 8.48243 7.24117 8.48243 7.13342C8.48243 7.02568 8.43963 6.92235 8.36344 6.84616C8.28726 6.76997 8.18393 6.72717 8.07618 6.72717H3.23462C3.12687 6.72717 3.02354 6.76997 2.94736 6.84616C2.87117 6.92235 2.82837 7.02568 2.82837 7.13342C2.82837 7.24117 2.87117 7.3445 2.94736 7.42068C3.02354 7.49687 3.12687 7.53967 3.23462 7.53967Z" fill="#575151"/>
<path d="M3.23462 9.28656H6.51587C6.62361 9.28656 6.72694 9.24376 6.80313 9.16757C6.87932 9.09139 6.92212 8.98805 6.92212 8.88031C6.92212 8.77257 6.87932 8.66923 6.80313 8.59305C6.72694 8.51686 6.62361 8.47406 6.51587 8.47406H3.23462C3.12687 8.47406 3.02354 8.51686 2.94736 8.59305C2.87117 8.66923 2.82837 8.77257 2.82837 8.88031C2.82837 8.98805 2.87117 9.09139 2.94736 9.16757C3.02354 9.24376 3.12687 9.28656 3.23462 9.28656Z" fill="#575151"/>
<path d="M9.72722 13.1194H9.59378C9.47934 12.9982 9.34133 12.9016 9.18823 12.8357C9.03513 12.7697 8.87017 12.7358 8.70347 12.7359H7.26816C6.94022 12.7363 6.62581 12.8667 6.39392 13.0986C6.16203 13.3305 6.03161 13.6449 6.03128 13.9728V14.7634C6.03169 15.0913 6.16215 15.4056 6.39403 15.6375C6.62591 15.8693 6.94027 15.9997 7.26816 16H8.70316C8.86991 16.0002 9.03493 15.9662 9.18809 15.9003C9.34125 15.8344 9.47931 15.7378 9.59378 15.6166H9.72784C10.93 15.6152 12.0895 15.1711 12.9849 14.3689C13.8802 13.5668 14.4487 12.4629 14.5816 11.2681C14.5981 11.2569 14.6143 11.2453 14.6303 11.2334C15.0744 10.9091 15.3238 10.4522 15.3319 9.94249C15.3407 9.36187 15.3413 8.74999 15.3319 8.12312C15.328 7.72211 15.1716 7.33763 14.8944 7.0478C14.89 5.24999 14.2719 3.65624 13.0585 2.30218C12.0328 1.15811 10.7707 0.435303 9.30597 0.154053C7.95628 -0.10376 6.69253 -0.0365724 5.55003 0.35374C4.40753 0.744053 3.37222 1.4628 2.47378 2.48905C2.27623 2.71553 2.09355 2.95458 1.92691 3.20468C1.86702 3.29427 1.84519 3.40398 1.8662 3.50968C1.88721 3.61537 1.94934 3.70839 2.03894 3.76827C2.12853 3.82815 2.23824 3.84999 2.34394 3.82898C2.44963 3.80797 2.54265 3.74583 2.60253 3.65624C2.74945 3.43527 2.91074 3.22419 3.08534 3.02436C4.69284 1.18749 6.73472 0.490303 9.15316 0.952178C10.4375 1.19905 11.5491 1.83562 12.4535 2.84374C13.566 4.08468 14.1144 5.55468 14.0828 7.21312C14.0817 7.27393 14.0942 7.33422 14.1195 7.38956C14.1447 7.44489 14.1821 7.49384 14.2288 7.5328C14.319 7.6049 14.392 7.69619 14.4424 7.80003C14.4929 7.90387 14.5197 8.01766 14.5207 8.13312C14.5285 8.75218 14.5278 9.35655 14.5207 9.92905C14.5166 10.1834 14.3925 10.4012 14.1513 10.5775C14.1044 10.6122 14.0551 10.6435 14.0038 10.6712C13.9432 10.7038 13.8919 10.7513 13.8547 10.8091C13.8175 10.8669 13.7956 10.9332 13.791 11.0019C13.6482 13.1341 11.8635 14.8044 9.72847 14.8044H9.39753C9.32939 14.8044 9.26237 14.8217 9.20263 14.8544C9.14289 14.8872 9.09234 14.9344 9.05566 14.9919C9.01771 15.0511 8.96563 15.1 8.9041 15.1342C8.84257 15.1683 8.77352 15.1866 8.70316 15.1875H7.26816C7.15563 15.1874 7.04774 15.1427 6.96817 15.0631C6.8886 14.9835 6.84386 14.8756 6.84378 14.7631V13.9725C6.84386 13.86 6.8886 13.7521 6.96817 13.6725C7.04774 13.5929 7.15563 13.5482 7.26816 13.5481H8.70316C8.77361 13.5491 8.84271 13.5675 8.90425 13.6018C8.96578 13.6362 9.01782 13.6852 9.05566 13.7447C9.09234 13.8021 9.14289 13.8494 9.20263 13.8821C9.26237 13.9149 9.32939 13.9321 9.39753 13.9322H9.72722C10.5214 13.9286 11.2863 13.6316 11.8747 13.0981C12.4631 12.5647 12.8335 11.8325 12.9147 11.0425C12.9213 10.9762 12.9114 10.9093 12.886 10.8477C12.8606 10.7862 12.8205 10.7318 12.7691 10.6894C12.6525 10.5897 12.5664 10.459 12.521 10.3125C12.4739 10.1702 12.4483 10.0217 12.445 9.87187C12.4375 9.34312 12.4375 8.78749 12.445 8.17249C12.4468 8.03172 12.4693 7.89198 12.5119 7.7578C12.5938 7.50249 12.7444 7.3328 12.9603 7.25374C13.0418 7.22389 13.1116 7.16874 13.1594 7.09636C13.2073 7.02399 13.2307 6.9382 13.2263 6.85155L13.2247 6.8203C13.2183 6.58777 13.1974 6.35587 13.1622 6.12593C12.6507 3.22624 9.98378 1.2878 7.09034 1.71093C5.91128 1.88343 4.91034 2.36405 4.11566 3.13968C4.03854 3.21493 3.99447 3.31774 3.99315 3.42549C3.99183 3.53323 4.03337 3.63709 4.10862 3.71421C4.18388 3.79133 4.28669 3.83539 4.39443 3.83671C4.50218 3.83803 4.60604 3.7965 4.68316 3.72124C5.35253 3.0678 6.20191 2.66187 7.20784 2.51499C9.66316 2.15562 11.9266 3.80311 12.361 6.26499C12.3804 6.38421 12.3936 6.50438 12.4003 6.62499C12.0878 6.8178 11.8632 7.11811 11.7382 7.50811C11.671 7.71943 11.6354 7.93952 11.6325 8.16124C11.625 8.78312 11.625 9.34562 11.6325 9.87999C11.6375 10.1121 11.6771 10.3421 11.75 10.5625C11.8193 10.7781 11.9319 10.9773 12.081 11.1478C11.8775 12.2681 10.8785 13.1194 9.72722 13.1194Z" fill="#575151"/>
</g>
<defs>
<clipPath id="clip0_11_1171">
<rect width="16" height="16" fill="white"/>
</clipPath>
</defs>
</svg>
