<svg width="390" height="453" viewBox="0 0 390 453" fill="none" xmlns="http://www.w3.org/2000/svg">
<path d="M66.9184 124.897C74.3453 124.997 74.6465 123.091 68.8254 114.459C62.2014 104.624 55.9789 101.412 52.2654 105.828C48.552 110.344 59.5918 124.797 66.9184 124.897Z" fill="#DFAC0F"/>
<path d="M31.6907 75.5197C41.426 91.9793 57.6847 92.1802 48.0498 75.6202C33.497 50.8303 14.8294 25.6387 8.90795 22.5274C5.09413 20.6205 -1.93118 20.6205 -2.73408 22.5274C-3.73772 25.438 8.30597 35.7757 31.6907 75.5197Z" fill="#DFAC0F"/>
<path d="M-59.8411 114.359C-5.44398 132.124 41.6267 150.089 47.9496 152.096C51.5627 153.2 50.4586 145.974 46.3437 141.558C39.6193 134.332 -74.2933 100.509 -74.2933 105.828C-74.2933 108.337 -69.2753 111.348 -59.8411 114.359Z" fill="#DFAC0F"/>
<path d="M221.98 84.1506C226.496 84.5521 235.228 73.7124 232.819 70.7015C231.314 68.8949 224.79 68.7949 222.683 70.5011C217.163 75.1178 216.761 83.6488 221.98 84.1506Z" fill="#DFAC0F"/>
<path d="M43.634 188.328C37.5119 189.733 14.8297 199.368 -37.6605 222.753C-70.1783 237.205 -70.8809 237.807 -64.558 242.826C-57.2314 248.546 -59.2387 246.338 19.5468 208.2C48.05 194.45 59.893 184.615 43.634 188.328Z" fill="#DFAC0F"/>
<path d="M347.334 184.313C341.112 189.532 343.822 191.539 360.883 194.249C372.124 196.055 373.429 187.224 362.389 184.012C352.453 181.101 351.048 181.101 347.334 184.313Z" fill="#DFAC0F"/>
<path d="M249.279 44.707C267.344 16.1034 268.85 12.9922 265.438 11.6875C263.129 10.7842 257.81 11.0853 255.401 12.1893C251.286 14.1966 232.117 49.7254 231.615 56.4498C230.913 64.9807 240.447 58.6576 249.279 44.707Z" fill="#DFAC0F"/>
<path d="M341.212 155.508C343.621 156.512 348.639 155.91 373.027 151.594C443.482 139.149 456.028 141.056 443.683 132.726C439.167 129.715 433.547 129.815 409.459 133.529C341.312 143.866 325.355 148.985 341.212 155.508Z" fill="#DFAC0F"/>
<path d="M338.804 114.059C334.889 111.449 331.878 111.249 328.165 113.156C323.448 115.564 322.946 118.776 327.061 120.883C335.291 125.099 346.13 118.876 338.804 114.059Z" fill="#DFAC0F"/>
<path d="M280.191 101.814C282.499 102.316 284.908 101.714 286.715 100.309C302.873 87.5623 322.244 72.207 335.492 64.9808C359.478 51.8332 386.476 33.366 386.476 30.054C386.476 21.9245 376.239 22.0253 363.192 30.4558C306.486 66.7874 271.058 94.9893 269.553 97.3981C268.348 99.2046 275.374 100.81 280.191 101.814Z" fill="#DFAC0F"/>
<path d="M362.891 99.2056C381.057 97.3991 422.406 82.0433 418.994 76.5233C416.184 72.007 408.757 71.2038 399.524 74.2147C382.863 79.7347 357.973 90.9755 354.862 94.3879C354.862 94.3879 349.342 100.611 362.891 99.2056Z" fill="#DFAC0F"/>
<path d="M94.8193 220.946C89.7007 218.638 86.2884 219.441 82.0732 224.058C76.5532 230.08 76.8542 230.681 30.8877 293.007C19.8477 307.961 19.647 309.367 28.3786 310.872C33.8986 311.776 35.103 310.571 53.2688 286.584C96.0237 229.979 100.239 223.455 94.8193 220.946Z" fill="#DFAC0F"/>
<path d="M167.683 67.9917C166.078 60.9662 161.26 56.8512 158.249 59.8621C157.045 61.0665 157.547 69.999 158.952 71.103C162.966 74.5154 168.687 72.508 167.683 67.9917Z" fill="#DFAC0F"/>
<path d="M215.958 265.207C215.155 266.11 215.256 267.314 216.26 269.421C219.772 277.149 228.705 297.824 230.913 303.545C235.429 314.987 240.246 322.615 243.157 322.916C247.071 323.317 246.87 322.414 239.243 303.746C225.292 269.522 219.873 260.59 215.958 265.207Z" fill="#DFAC0F"/>
<path d="M176.917 235.9C172.3 233.792 167.683 234.495 166.479 237.506C164.773 241.922 165.375 338.07 167.081 341.382C169.189 345.497 174.307 346.2 177.218 342.787C179.526 340.178 179.526 339.576 179.627 316.291C179.727 303.244 179.827 287.989 180.028 282.469C180.931 256.575 179.526 237.104 176.917 235.9Z" fill="#DFAC0F"/>
<path d="M237.938 240.717C250.584 258.983 294.744 318.398 294.844 318.398C300.364 325.825 328.767 345.296 289.625 292.504C270.054 266.109 256.104 245.534 246.369 237.405C240.246 232.487 231.214 231.082 237.938 240.717Z" fill="#DFAC0F"/>
<path d="M408.656 277.351C394.304 268.017 325.455 216.129 313.512 211.111C309.497 209.404 308.494 209.404 304.479 211.111C296.851 214.423 300.163 217.634 343.621 248.747C382.461 276.548 402.534 289.294 411.968 291.702C416.987 293.007 429.231 290.699 408.656 277.351Z" fill="#DFAC0F"/>
<path d="M-6.6483 256.675C-25.0148 269.02 -34.9507 279.257 -29.6315 280.26C-25.1151 281.164 6.09788 261.693 6.90079 257.578C7.7037 253.062 -0.626486 252.56 -6.6483 256.675Z" fill="#DFAC0F"/>
<path d="M468.875 205.992C468.273 205.088 395.509 184.313 386.777 193.045C381.056 198.766 382.863 201.475 394.505 204.185C457.734 219.139 477.506 219.641 468.875 205.992Z" fill="#DFAC0F"/>
<path d="M161.561 25.1364C157.948 10.383 155.539 6.87053 150.722 9.88144C149.417 10.6843 149.518 13.6953 151.124 30.456C151.826 37.3811 154.636 41.0941 159.353 41.0941C164.873 41.1945 165.074 39.5888 161.561 25.1364Z" fill="#DFAC0F"/>
<path d="M29.1817 237.908C25.0668 235.7 21.2528 236.703 16.4354 241.119C8.80772 248.145 16.2348 250.553 26.6726 244.431C31.4901 241.621 32.293 239.513 29.1817 237.908Z" fill="#DFAC0F"/>
<path d="M110.677 72.3074C107.164 62.8732 93.314 19.416 85.586 13.2938C82.8762 11.1862 80.3671 11.7881 80.3671 14.4979C80.3671 17.2077 99.6369 78.5302 101.945 88.0647C104.454 98.8036 126.735 115.363 110.677 72.3074Z" fill="#DFAC0F"/>
<path d="M105.358 309.667C99.9379 316.191 106.562 325.625 113.989 322.112C118.305 320.005 119.509 314.083 116.398 310.671C113.688 307.66 107.465 307.158 105.358 309.667Z" fill="#DFAC0F"/>
<path d="M123.624 247.643C121.918 253.063 112.785 284.978 112.182 286.785C110.376 291.803 117.1 295.416 121.616 291.803C124.427 289.595 132.456 252.561 132.456 241.922C132.456 232.789 127.237 236.201 123.624 247.643Z" fill="#DFAC0F"/>
</svg>
